<?xml version="1.0" standalone="no"?>
<!DOCTYPE svg PUBLIC "-//W3C//DTD SVG 20010904//EN"
 "http://www.w3.org/TR/2001/REC-SVG-20010904/DTD/svg10.dtd">
<svg version="1.0" xmlns="http://www.w3.org/2000/svg"
 width="260.000000pt" height="260.000000pt" viewBox="0 0 260.000000 260.000000"
 preserveAspectRatio="xMidYMid meet">
<metadata>
Created by potrace 1.11, written by Peter Selinger 2001-2013
</metadata>
<g transform="translate(0.000000,260.000000) scale(0.100000,-0.100000)"
fill="#000000" stroke="none">
<path d="M755 2581 c-165 -47 -328 -166 -376 -276 -18 -41 -19 -68 -13 -676 7
-847 7 -842 27 -873 15 -22 58 -55 122 -93 11 -6 254 -158 541 -337 567 -355
562 -353 621 -302 l28 24 0 769 c-1 547 -4 774 -12 788 -10 18 -48 41 -233
143 -25 14 -115 64 -200 112 -85 48 -176 99 -202 113 -26 15 -83 46 -125 70
-43 24 -103 57 -133 74 -30 16 -97 53 -148 82 -106 60 -106 64 -23 125 64 47
124 73 187 81 48 6 58 3 145 -43 119 -62 243 -128 294 -157 22 -12 81 -44 130
-70 101 -53 215 -114 290 -155 28 -15 100 -53 160 -86 61 -32 124 -66 140 -75
l30 -16 5 -734 c3 -404 9 -741 13 -750 11 -22 59 -48 94 -51 40 -3 84 17 107
49 19 26 20 52 20 790 1 419 -2 776 -6 792 -11 40 26 18 -563 322 -132 67
-321 165 -420 217 -294 152 -301 155 -374 158 -39 1 -90 -5 -126 -15z"/>
</g>
</svg>
