<?xml version="1.0" standalone="no"?>
<!DOCTYPE svg PUBLIC "-//W3C//DTD SVG 20010904//EN"
 "http://www.w3.org/TR/2001/REC-SVG-20010904/DTD/svg10.dtd">
<svg version="1.0" xmlns="http://www.w3.org/2000/svg"
 width="1500.000000pt" height="1500.000000pt" viewBox="0 0 1500.000000 1500.000000"
 preserveAspectRatio="xMidYMid meet">
<metadata>
Created by potrace 1.11, written by Peter Selinger 2001-2013
</metadata>
<g transform="translate(0.000000,1500.000000) scale(0.100000,-0.100000)"
fill="#000000" stroke="none">
<path d="M4864 14990 c-678 -71 -1500 -446 -2090 -951 -132 -113 -318 -311
-396 -420 -122 -171 -216 -378 -253 -556 -9 -43 -19 -134 -21 -203 -3 -69 15
-1959 39 -4200 42 -3835 46 -4078 62 -4120 51 -126 209 -308 350 -402 39 -25
394 -248 790 -494 622 -386 2505 -1560 4960 -3091 380 -237 714 -443 744 -457
260 -131 610 -19 735 235 49 99 56 153 56 429 l0 235 911 459 c501 252 911
457 913 455 36 -56 95 -124 138 -156 65 -51 199 -115 288 -137 92 -24 245 -32
322 -16 190 37 380 185 470 366 l43 87 3 4421 c1 2983 -1 4437 -8 4469 -23
110 -117 243 -214 305 -22 14 -853 443 -1846 954 -993 512 -1881 969 -1975
1018 -93 48 -399 206 -680 350 -280 144 -582 299 -670 345 -88 45 -394 203
-680 350 -286 147 -578 298 -650 335 -602 313 -662 339 -846 375 -98 19 -376
28 -495 15z m96 -1100 c47 -6 110 -18 140 -26 30 -9 316 -156 635 -326 1357
-726 4941 -2642 5300 -2833 473 -251 517 -277 541 -312 19 -27 19 -130 25
-4178 4 -2282 8 -4168 10 -4189 l4 -40 -880 -443 c-484 -243 -883 -443 -887
-443 -5 0 -8 1792 -8 3983 0 4376 4 4055 -61 4178 -38 70 -116 154 -180 191
-24 14 -1461 816 -3194 1783 -1732 966 -3154 1760 -3159 1765 -27 26 211 275
395 413 479 358 937 523 1319 477z m-226 -3887 c28 -9 75 -27 104 -40 29 -13
57 -23 63 -23 10 0 21 -8 57 -40 10 -8 34 -24 55 -35 20 -11 37 -23 37 -27 0
-5 5 -8 10 -8 6 0 21 -10 33 -23 12 -12 42 -38 67 -57 57 -44 240 -228 240
-240 0 -6 7 -10 15 -10 8 0 15 -6 15 -13 0 -7 9 -18 20 -25 11 -7 20 -19 20
-27 0 -8 5 -15 10 -15 6 0 10 -7 10 -15 0 -8 6 -15 13 -15 6 -1 30 -26 52 -57
22 -31 47 -63 55 -72 27 -28 70 -89 70 -100 0 -6 7 -11 15 -11 8 0 15 -7 15
-15 0 -8 4 -15 9 -15 5 0 14 -12 20 -27 7 -16 25 -43 41 -62 24 -28 33 -32 56
-27 16 4 38 18 51 32 12 13 27 24 33 24 5 0 10 7 10 15 0 8 6 15 13 15 6 1 30
19 52 40 22 22 45 40 52 40 6 0 27 14 45 30 18 17 38 30 45 30 7 0 13 3 13 8
0 4 17 16 38 27 20 11 43 26 50 32 7 7 20 13 27 13 8 0 26 11 40 24 14 13 41
27 60 30 19 4 35 11 35 16 0 6 11 10 24 10 14 0 28 5 31 10 3 6 14 10 23 10 9
0 30 7 46 15 16 9 57 18 90 21 34 3 68 8 76 11 23 9 140 9 140 1 0 -5 20 -8
44 -8 26 0 51 -6 60 -15 8 -8 24 -15 36 -15 12 0 28 -7 36 -15 9 -8 24 -15 33
-15 10 0 24 -7 31 -15 7 -8 17 -15 23 -15 5 0 20 -11 32 -24 12 -13 32 -29 43
-35 12 -7 22 -18 22 -26 0 -8 7 -15 15 -15 8 0 15 -5 15 -10 0 -6 10 -21 23
-33 13 -12 27 -29 30 -37 4 -8 16 -28 27 -45 10 -16 29 -50 42 -75 13 -25 26
-47 30 -50 3 -3 9 -22 13 -43 4 -20 11 -40 16 -43 5 -3 9 -15 9 -27 0 -12 7
-31 15 -41 8 -11 15 -33 15 -49 0 -15 5 -38 12 -50 14 -27 26 -116 40 -310 14
-200 -13 -703 -41 -755 -6 -12 -11 -38 -11 -60 0 -22 -7 -59 -15 -82 -28 -79
-22 -102 40 -149 30 -22 57 -41 61 -41 4 0 31 -18 60 -40 29 -22 57 -40 63
-40 5 0 11 -7 15 -15 3 -8 11 -15 18 -15 7 0 25 -11 40 -25 15 -14 30 -25 33
-25 3 0 13 -8 24 -17 10 -10 33 -29 52 -43 18 -14 46 -37 61 -52 16 -16 33
-28 38 -28 6 0 10 -5 10 -10 0 -6 7 -13 15 -17 9 -3 34 -23 55 -44 22 -22 44
-39 50 -39 5 0 10 -5 10 -12 0 -7 25 -36 55 -64 30 -29 55 -57 55 -63 0 -7 7
-14 15 -17 8 -4 15 -10 15 -14 0 -5 18 -28 40 -51 22 -24 43 -51 46 -61 3 -10
10 -18 15 -18 5 0 9 -7 9 -15 0 -8 5 -15 10 -15 6 0 10 -6 10 -14 0 -7 6 -19
14 -26 8 -6 30 -42 48 -78 18 -37 35 -69 38 -72 15 -14 40 -75 40 -95 0 -12 7
-28 15 -35 8 -7 15 -28 15 -47 0 -19 5 -44 12 -56 11 -19 29 -136 29 -192 1
-46 -20 -168 -30 -178 -6 -6 -11 -23 -11 -38 0 -15 -7 -34 -15 -43 -8 -8 -15
-24 -15 -35 0 -12 -4 -21 -9 -21 -5 0 -12 -8 -15 -17 -18 -51 -106 -151 -182
-207 -21 -17 -41 -32 -44 -36 -24 -26 -189 -112 -243 -125 -15 -4 -27 -11 -27
-16 0 -5 -15 -9 -34 -9 -18 0 -39 -7 -46 -15 -7 -8 -24 -15 -39 -15 -14 0 -44
-7 -66 -15 -22 -8 -57 -14 -77 -15 -20 0 -39 -4 -42 -9 -3 -5 -41 -12 -83 -15
-43 -4 -97 -12 -120 -19 -40 -11 -43 -14 -43 -47 0 -19 7 -53 15 -75 8 -22 14
-61 15 -87 0 -26 5 -59 11 -75 29 -74 55 -569 41 -767 -13 -180 -28 -286 -42
-300 -5 -5 -10 -22 -10 -36 0 -14 -7 -35 -15 -46 -8 -10 -15 -29 -15 -41 0
-12 -4 -24 -9 -28 -11 -6 -41 -63 -41 -77 0 -11 -38 -48 -50 -48 -5 0 -10 -5
-10 -11 0 -21 -58 -68 -122 -98 -58 -28 -74 -31 -159 -31 -67 1 -100 5 -113
15 -11 8 -31 15 -45 15 -14 0 -35 7 -45 15 -11 8 -27 15 -37 15 -9 0 -19 7
-23 15 -3 8 -14 15 -24 15 -11 0 -31 11 -46 25 -15 14 -32 25 -39 25 -7 0 -24
11 -39 25 -15 14 -32 25 -38 25 -5 0 -10 7 -10 15 0 8 -6 15 -14 15 -8 0 -16
7 -20 15 -3 8 -11 15 -19 15 -16 0 -107 85 -107 100 0 5 -5 10 -11 10 -6 0
-30 20 -55 44 -24 25 -44 49 -44 55 0 6 -6 11 -12 11 -7 1 -24 15 -38 31 -14
17 -40 47 -57 67 -18 20 -33 43 -33 50 0 6 -7 12 -15 12 -8 0 -15 5 -15 10 0
6 -11 21 -25 34 -14 13 -25 26 -25 30 0 4 -13 21 -30 39 -16 18 -30 37 -30 44
0 6 -3 13 -8 15 -4 2 -23 23 -41 48 -19 25 -39 50 -45 55 -15 15 -35 47 -42
68 -4 9 -10 17 -15 17 -5 0 -9 7 -9 15 0 27 -53 18 -88 -15 -18 -16 -35 -30
-37 -30 -2 0 -30 -25 -62 -55 -32 -30 -64 -55 -70 -55 -7 0 -13 -4 -13 -10 0
-5 -7 -10 -15 -10 -9 0 -18 -7 -21 -15 -4 -8 -10 -15 -15 -15 -5 0 -28 -13
-51 -30 -22 -17 -47 -30 -55 -30 -7 0 -13 -4 -13 -9 0 -5 -11 -12 -25 -15 -14
-4 -25 -11 -25 -16 0 -6 -9 -10 -19 -10 -10 0 -21 -7 -25 -15 -3 -8 -13 -15
-21 -15 -9 0 -23 -7 -31 -15 -9 -8 -26 -15 -39 -15 -13 0 -27 -5 -30 -10 -3
-5 -16 -10 -29 -10 -12 0 -31 -7 -42 -15 -10 -8 -39 -15 -64 -15 -25 0 -56 -7
-70 -15 -28 -16 -180 -21 -180 -6 0 5 -25 12 -55 16 -30 3 -57 10 -60 15 -3 4
-23 11 -45 15 -22 4 -40 10 -40 15 0 4 -11 11 -25 14 -14 4 -25 11 -25 16 0 6
-4 10 -10 10 -5 0 -23 12 -39 27 -16 16 -36 33 -43 39 -35 30 -128 148 -128
162 0 5 -7 15 -15 22 -8 7 -15 20 -15 30 0 10 -7 20 -15 24 -8 3 -15 14 -15
24 0 10 -4 22 -9 27 -4 6 -16 35 -26 65 -10 30 -24 67 -31 82 -8 14 -14 42
-14 61 0 20 -4 38 -9 41 -4 3 -11 38 -15 77 -3 40 -12 79 -19 87 -18 22 -16
642 2 695 7 21 17 73 22 115 20 180 26 218 37 239 7 12 12 41 12 65 l0 43 -95
60 c-52 33 -95 63 -95 68 0 4 -7 7 -15 7 -8 0 -15 3 -15 8 0 4 -17 16 -37 27
-39 21 -73 50 -73 63 0 4 -18 16 -40 26 -22 11 -40 23 -40 28 0 4 -4 8 -9 8
-6 0 -30 20 -55 45 -26 25 -50 45 -55 45 -13 0 -211 197 -211 210 0 5 -6 10
-12 10 -7 0 -29 23 -48 50 -19 27 -38 50 -42 50 -5 0 -8 7 -8 15 0 8 -6 15
-14 15 -7 0 -17 8 -20 18 -13 32 -31 62 -38 62 -5 0 -8 7 -8 15 0 9 -7 18 -15
21 -8 4 -15 15 -15 25 0 11 -7 22 -15 25 -8 4 -15 14 -15 24 0 10 -7 23 -15
30 -8 7 -15 18 -15 25 0 16 -32 79 -42 83 -5 2 -8 16 -8 30 0 15 -7 36 -15 46
-8 11 -15 37 -15 57 0 21 -5 39 -12 41 -7 3 -13 32 -15 74 -3 38 -9 79 -15 91
-7 15 -7 31 1 54 6 17 11 50 11 71 0 22 6 52 14 66 8 15 18 44 21 65 3 20 10
37 15 37 6 0 10 10 10 22 0 11 11 36 25 54 14 18 25 37 25 41 0 5 13 20 30 33
16 14 29 29 30 33 0 12 27 37 39 37 6 0 11 7 11 15 0 8 4 15 10 15 5 0 20 9
32 19 13 11 34 29 47 40 13 12 30 21 38 21 7 0 13 4 13 10 0 5 11 12 25 16 14
3 25 10 25 14 0 5 14 11 30 15 17 4 30 11 30 16 0 5 10 9 23 9 13 0 28 5 34
11 15 15 133 58 188 70 22 4 58 12 80 18 82 21 197 41 236 41 22 0 53 7 69 15
24 13 30 22 30 50 0 18 -5 46 -11 62 -11 27 -15 52 -39 273 -5 52 -14 104 -19
116 -14 33 -23 455 -12 584 11 122 31 243 44 256 4 4 7 21 7 39 0 17 7 40 15
51 8 10 15 29 15 42 0 12 4 22 9 22 5 0 12 14 16 30 4 17 11 30 16 30 5 0 9 6
9 13 1 16 35 57 49 57 6 0 11 6 11 13 0 17 64 77 82 77 8 0 18 3 22 7 40 40
202 55 290 26z"/>
<path d="M4615 9730 c-3 -5 -19 -10 -34 -10 -20 0 -41 -12 -70 -41 -22 -23
-41 -47 -41 -54 0 -7 -3 -15 -7 -17 -12 -5 -43 -68 -43 -87 0 -9 -6 -25 -14
-36 -7 -11 -16 -45 -20 -75 -3 -30 -10 -82 -15 -115 -12 -79 -12 -347 0 -455
5 -47 13 -130 17 -185 5 -55 14 -110 20 -122 7 -12 12 -41 12 -65 0 -24 7 -65
15 -92 8 -27 15 -62 15 -78 l0 -28 163 -1 c89 0 198 -5 242 -10 44 -5 130 -14
190 -19 61 -6 116 -12 124 -15 13 -5 81 60 81 78 0 5 10 19 23 31 12 12 31 37
41 56 11 19 30 44 43 56 13 12 23 25 23 30 0 11 29 50 77 103 18 20 33 39 33
43 0 4 21 30 48 57 96 99 112 121 112 146 0 14 -4 25 -10 25 -5 0 -10 9 -10
20 0 10 -6 23 -13 27 -6 4 -32 35 -56 68 -25 33 -50 65 -56 70 -7 6 -23 28
-37 50 -14 22 -39 54 -55 70 -17 17 -38 43 -48 58 -36 56 -178 207 -195 207
-5 0 -10 5 -10 12 0 12 -59 68 -72 68 -4 0 -8 7 -8 15 0 8 -4 15 -9 15 -6 0
-25 14 -43 30 -18 17 -36 30 -41 30 -4 0 -20 11 -35 25 -15 14 -30 25 -34 25
-5 0 -27 14 -50 30 -22 17 -49 30 -59 30 -10 0 -21 5 -24 10 -3 6 -19 10 -34
10 -15 0 -31 3 -34 6 -11 12 -95 15 -102 4z"/>
<path d="M6730 9168 c-84 -8 -149 -23 -163 -37 -6 -6 -24 -11 -39 -11 -15 0
-28 -4 -28 -10 0 -5 -12 -13 -27 -17 -16 -3 -45 -19 -67 -35 -21 -15 -45 -28
-53 -28 -7 0 -13 -4 -13 -9 0 -5 -11 -12 -25 -15 -14 -4 -25 -11 -25 -16 0 -6
-7 -10 -15 -10 -8 0 -15 -4 -15 -10 0 -5 -4 -10 -10 -10 -5 0 -19 -8 -29 -17
-31 -29 -50 -43 -55 -43 -3 0 -26 -20 -52 -45 -25 -25 -49 -45 -53 -45 -4 0
-22 -13 -39 -28 -31 -28 -45 -82 -22 -82 6 0 10 -9 10 -20 0 -11 7 -23 15 -26
8 -4 15 -12 15 -20 0 -8 4 -14 10 -14 5 0 12 -11 16 -25 3 -14 10 -25 15 -25
5 0 9 -6 9 -14 0 -8 6 -21 13 -28 6 -7 21 -31 32 -53 11 -22 26 -46 33 -53 6
-7 12 -20 12 -28 0 -8 3 -14 8 -14 4 0 16 -20 27 -45 11 -25 22 -45 25 -45 4
0 17 -25 31 -55 13 -30 27 -55 30 -55 4 0 10 -11 13 -25 4 -14 11 -25 16 -25
6 0 10 -8 10 -17 0 -26 34 -92 48 -93 6 0 12 -11 12 -24 0 -13 3 -26 8 -28 4
-1 14 -16 22 -33 16 -31 75 -68 129 -80 17 -3 31 -11 31 -16 0 -5 8 -9 19 -9
10 0 39 -11 65 -25 26 -14 52 -25 58 -25 17 0 108 -44 108 -52 0 -5 9 -8 21
-8 22 0 81 -29 87 -42 2 -5 10 -8 18 -8 8 0 31 -9 51 -20 21 -11 43 -20 50
-20 6 0 13 -3 15 -7 5 -13 68 -43 88 -43 13 0 19 11 24 45 4 24 11 47 17 50 5
4 9 23 9 43 0 20 5 53 11 72 6 19 14 73 19 120 5 47 14 135 20 195 14 127 7
502 -10 519 -5 5 -10 30 -10 54 0 45 -21 124 -46 174 -8 14 -14 36 -14 47 0
12 -4 21 -10 21 -5 0 -10 6 -10 14 0 7 -7 19 -15 26 -8 7 -15 21 -15 31 0 11
-7 19 -15 19 -8 0 -15 6 -15 13 0 16 -84 97 -99 97 -6 0 -11 4 -11 8 0 13
-100 41 -155 44 -27 2 -79 0 -115 -4z"/>
<path d="M5790 8541 c0 -5 -18 -27 -40 -49 -22 -21 -40 -44 -40 -50 0 -7 -7
-12 -15 -12 -8 0 -15 -4 -15 -9 0 -5 -11 -19 -25 -32 -13 -13 -25 -29 -25 -34
0 -6 -17 -29 -38 -50 -79 -83 -97 -145 -42 -145 15 0 41 -7 56 -15 16 -8 43
-15 60 -15 18 0 45 -7 60 -15 16 -8 41 -15 57 -15 15 0 35 -4 45 -10 16 -8 40
-15 162 -41 24 -5 49 -14 54 -19 13 -13 86 -13 86 1 0 13 -43 93 -52 97 -5 2
-8 10 -8 18 0 8 -13 33 -30 56 -16 22 -30 47 -30 55 0 7 -3 13 -7 13 -5 0 -19
25 -32 55 -14 30 -28 55 -33 55 -4 0 -8 7 -8 15 0 8 -4 15 -9 15 -5 0 -13 10
-17 23 -4 12 -9 24 -13 27 -3 3 -16 23 -27 45 -16 29 -29 41 -48 43 -14 2 -26
-1 -26 -7z"/>
<path d="M4543 7979 c-17 -17 -16 -71 2 -128 7 -25 19 -66 25 -91 6 -25 18
-66 25 -91 8 -26 15 -56 15 -67 0 -11 7 -33 15 -48 8 -16 15 -38 15 -49 0 -11
7 -29 15 -39 8 -11 15 -32 15 -46 0 -27 31 -66 43 -53 4 3 7 14 7 23 0 10 7
23 15 30 8 7 15 20 15 30 0 10 7 20 15 24 8 3 15 12 15 19 0 15 55 125 71 142
5 5 9 19 9 32 0 14 6 23 15 23 8 0 15 9 15 19 0 11 4 23 10 26 8 5 18 23 44
85 14 31 35 63 46 70 6 4 12 23 13 41 l2 34 -110 6 c-60 4 -162 10 -225 14
-88 5 -118 4 -127 -6z"/>
<path d="M4200 7959 c-203 -30 -300 -50 -300 -61 0 -5 -13 -8 -28 -8 -16 0
-37 -7 -48 -15 -10 -8 -28 -15 -40 -15 -11 0 -29 -7 -40 -15 -10 -8 -29 -15
-40 -15 -12 0 -27 -7 -34 -15 -7 -8 -21 -15 -31 -15 -11 0 -19 -4 -19 -10 0
-5 -6 -10 -14 -10 -7 0 -29 -13 -47 -30 -19 -16 -40 -30 -47 -30 -7 0 -15 -7
-18 -15 -4 -8 -10 -15 -15 -15 -12 0 -49 -38 -49 -50 0 -5 -3 -10 -8 -10 -4 0
-18 -20 -32 -45 -14 -25 -28 -45 -32 -45 -5 0 -8 -8 -8 -18 0 -10 -7 -28 -16
-40 -12 -18 -14 -45 -12 -135 4 -108 17 -165 46 -195 6 -7 12 -24 12 -37 0
-13 3 -25 8 -27 4 -1 16 -21 27 -43 21 -41 29 -54 55 -83 8 -10 24 -34 35 -55
11 -20 28 -40 37 -43 10 -3 21 -16 24 -30 3 -13 12 -24 20 -24 8 0 14 -6 14
-13 0 -8 11 -20 25 -27 14 -7 25 -17 25 -21 0 -13 87 -99 99 -99 6 0 11 -7 11
-15 0 -8 6 -15 14 -15 8 0 16 -3 18 -7 2 -5 30 -30 63 -58 33 -27 62 -53 63
-57 2 -5 8 -8 13 -8 8 0 98 -65 109 -79 8 -10 43 -31 63 -37 9 -4 17 -10 17
-15 0 -5 5 -9 10 -9 6 0 19 -8 29 -17 74 -67 151 -93 151 -50 0 12 7 35 15 51
8 15 15 41 15 57 0 15 4 31 10 34 5 3 12 28 16 56 4 27 11 52 15 55 5 3 9 16
9 28 0 13 7 29 15 36 8 7 15 24 15 39 0 14 7 35 15 45 8 11 15 34 15 50 0 17
7 40 15 50 8 11 15 28 15 38 0 10 5 18 10 18 6 0 10 10 10 23 0 13 7 32 15 43
8 10 15 28 15 39 0 11 7 29 15 39 19 25 19 95 0 120 -8 11 -15 31 -15 45 0 14
-7 35 -15 45 -8 11 -15 35 -15 53 0 18 -4 33 -9 33 -5 0 -11 18 -15 40 -3 22
-11 40 -16 40 -6 0 -10 19 -10 43 0 23 -7 51 -15 61 -8 11 -15 34 -15 50 0 17
-7 40 -15 50 -8 11 -15 32 -15 48 0 15 -4 28 -10 28 -5 0 -10 16 -10 35 0 20
-7 52 -15 72 -8 19 -15 50 -15 69 0 18 -4 36 -10 39 -5 3 -12 28 -16 55 -5 38
-11 50 -28 54 -11 3 -23 5 -26 4 -3 0 -30 -5 -60 -9z"/>
<path d="M5319 7912 c-10 -1 -20 -11 -23 -20 -6 -20 -25 -50 -43 -70 -7 -7
-13 -20 -13 -28 0 -8 -4 -14 -9 -14 -11 0 -41 -56 -41 -75 0 -7 -7 -15 -15
-19 -8 -3 -15 -15 -15 -26 0 -11 -4 -20 -9 -20 -5 0 -14 -12 -20 -27 -19 -46
-55 -107 -68 -116 -7 -4 -13 -14 -13 -21 0 -17 -60 -130 -71 -134 -5 -2 -9
-14 -9 -27 0 -12 -7 -28 -15 -35 -8 -7 -15 -18 -15 -25 0 -16 -32 -79 -42 -83
-5 -2 -8 -14 -8 -27 0 -12 -7 -28 -15 -35 -8 -7 -15 -20 -15 -29 0 -9 -7 -27
-16 -40 -22 -30 -21 -122 0 -153 9 -12 16 -35 16 -50 0 -16 4 -28 10 -28 5 0
12 -12 16 -27 6 -29 28 -85 44 -115 6 -10 10 -28 10 -40 0 -13 7 -32 15 -42 8
-11 15 -30 15 -43 0 -13 7 -26 15 -29 8 -4 15 -15 15 -25 0 -19 3 -27 34 -86
9 -17 16 -38 16 -46 0 -8 11 -35 25 -61 14 -26 25 -53 25 -60 0 -8 6 -19 14
-25 8 -7 17 -27 20 -46 4 -19 11 -35 16 -35 6 0 10 -11 10 -24 0 -13 7 -29 15
-36 8 -7 15 -19 15 -26 0 -13 9 -34 32 -74 4 -8 11 -22 14 -30 48 -120 106
-200 145 -200 10 0 33 -6 51 -14 55 -23 103 -36 132 -36 14 0 29 -7 32 -15 4
-9 19 -15 37 -15 32 0 121 -23 175 -46 18 -8 46 -14 62 -14 16 0 32 -4 35 -10
3 -5 22 -10 41 -10 19 0 51 -7 71 -15 19 -8 55 -15 79 -15 23 0 45 -4 48 -9 3
-5 36 -12 73 -16 36 -4 72 -9 79 -12 15 -5 74 54 74 74 0 7 4 13 9 13 10 0 34
38 47 73 3 9 10 17 15 17 5 0 9 7 9 15 0 8 10 30 23 49 54 86 67 108 67 117 0
6 11 25 25 43 14 18 25 43 25 54 0 12 4 22 8 22 4 0 13 12 19 28 7 15 28 56
47 91 20 35 36 72 36 82 0 11 4 19 9 19 5 0 12 11 15 25 4 14 10 25 15 25 5 0
12 14 16 30 4 17 11 30 16 30 5 0 9 10 9 23 0 12 8 33 17 47 22 31 21 120 -1
152 -9 12 -16 35 -16 50 0 16 -4 28 -10 28 -5 0 -10 9 -10 20 0 17 -18 61 -51
122 -5 10 -9 28 -9 42 0 13 -7 29 -15 36 -8 7 -15 22 -15 34 0 11 -18 57 -40
101 -22 44 -40 85 -40 92 0 6 -14 42 -31 80 -16 37 -34 77 -39 88 -4 11 -22
50 -39 86 -17 36 -31 73 -31 81 0 9 -3 18 -7 20 -11 5 -43 67 -43 84 0 8 -7
17 -15 20 -8 4 -15 14 -15 24 0 20 -30 83 -42 88 -5 2 -8 9 -8 16 0 7 -19 18
-42 25 -24 7 -58 19 -76 27 -18 8 -40 14 -50 14 -9 0 -55 14 -102 30 -46 17
-92 30 -102 30 -10 0 -18 4 -18 9 0 5 -23 11 -52 13 -29 3 -54 11 -56 17 -2 6
-25 11 -52 11 -27 0 -51 4 -55 9 -3 5 -30 13 -60 16 -31 4 -57 11 -60 15 -3 5
-29 11 -58 15 -28 3 -63 10 -77 15 -29 10 -117 18 -141 12z m466 -592 c3 -5
23 -10 44 -10 21 0 44 -6 50 -14 6 -7 24 -16 39 -19 40 -9 202 -151 202 -177
0 -5 7 -10 15 -10 8 0 15 -7 15 -15 0 -8 3 -15 8 -15 4 0 18 -25 32 -55 14
-30 28 -55 33 -55 4 0 7 -10 7 -22 0 -13 7 -32 15 -42 8 -11 15 -32 15 -47 0
-15 5 -29 10 -31 41 -13 42 -412 2 -426 -7 -2 -12 -11 -12 -20 0 -25 -41 -102
-61 -115 -11 -7 -19 -16 -19 -22 0 -13 -36 -45 -50 -45 -6 0 -10 -4 -10 -9 0
-21 -115 -64 -182 -69 -95 -7 -225 39 -296 104 -21 19 -40 34 -44 34 -11 0
-39 30 -68 73 -14 20 -28 37 -32 37 -5 0 -8 7 -8 15 0 8 -3 15 -8 15 -4 0 -19
21 -32 48 -14 26 -27 49 -30 52 -9 9 -32 74 -38 105 -2 17 -8 32 -12 35 -14
10 -33 136 -33 220 -1 88 28 221 58 267 8 12 15 29 15 38 0 8 5 15 10 15 6 0
13 7 17 16 8 21 59 74 72 74 5 0 11 7 15 15 3 8 12 15 19 15 8 0 20 7 27 15 7
8 23 15 36 15 12 0 25 4 28 8 7 12 143 14 151 2z"/>
<path d="M6624 7519 c-3 -6 -3 -14 2 -18 13 -9 44 -70 44 -86 0 -7 7 -18 15
-25 8 -7 15 -21 15 -31 0 -18 8 -37 32 -79 4 -8 11 -22 14 -30 3 -8 12 -28 20
-43 7 -16 14 -37 14 -48 0 -10 4 -19 10 -19 5 0 12 -12 16 -27 3 -16 10 -39
16 -53 24 -59 41 -97 54 -123 8 -16 14 -36 14 -45 0 -9 7 -26 15 -36 8 -11 15
-30 15 -43 0 -18 6 -23 24 -23 25 0 36 16 36 56 0 13 4 24 9 24 5 0 11 18 15
40 3 22 11 40 16 40 6 0 10 13 10 29 0 16 7 42 15 57 8 16 15 39 15 51 0 12 5
25 10 28 6 3 10 18 10 33 0 15 6 36 14 47 7 11 16 40 19 63 4 35 1 48 -14 63
-10 10 -26 19 -34 19 -8 0 -15 5 -15 10 0 6 -8 10 -19 10 -10 0 -24 7 -31 15
-7 8 -21 15 -32 15 -10 0 -21 7 -24 15 -4 8 -17 15 -30 15 -13 0 -24 4 -24 9
0 5 -13 12 -30 16 -16 4 -30 11 -30 16 0 5 -11 9 -24 9 -14 0 -31 7 -40 15 -8
8 -23 15 -33 15 -10 0 -27 7 -37 15 -23 18 -62 20 -72 4z"/>
<path d="M7337 7163 c-4 -3 -7 -16 -7 -28 0 -12 -7 -30 -15 -41 -8 -10 -15
-33 -15 -51 0 -17 -4 -35 -10 -38 -5 -3 -12 -28 -16 -56 -4 -27 -11 -52 -15
-55 -5 -3 -9 -15 -9 -28 0 -12 -7 -31 -15 -42 -8 -10 -15 -28 -15 -40 0 -11
-7 -29 -15 -40 -8 -10 -15 -28 -15 -39 0 -22 -30 -107 -41 -115 -3 -3 -9 -22
-13 -42 -4 -21 -11 -38 -16 -38 -6 0 -10 -13 -10 -29 0 -16 -7 -34 -15 -41 -9
-7 -15 -29 -15 -55 0 -26 6 -48 15 -55 8 -7 15 -23 15 -35 0 -12 7 -39 15 -58
8 -20 15 -48 15 -62 0 -14 5 -25 10 -25 6 0 10 -10 10 -23 0 -13 7 -32 15 -43
8 -10 15 -35 15 -55 0 -19 7 -44 15 -55 8 -10 15 -36 15 -56 0 -21 4 -38 10
-38 5 0 12 -17 15 -37 4 -21 10 -47 14 -58 13 -32 33 -116 41 -168 3 -26 12
-53 18 -59 7 -7 12 -27 12 -45 0 -19 6 -36 16 -41 19 -11 165 -3 179 9 5 5 26
9 47 9 20 0 57 6 80 14 24 8 60 17 81 20 20 4 37 11 37 16 0 6 14 10 30 10 17
0 38 4 48 10 9 5 35 16 57 26 64 26 146 66 159 78 19 18 75 56 81 56 10 0 35
28 35 39 0 6 7 11 15 11 8 0 15 5 15 11 0 5 13 24 30 42 16 18 30 36 30 41 0
4 11 30 25 58 21 43 25 63 25 146 0 91 -6 121 -42 212 -23 59 -70 143 -85 153
-7 4 -13 15 -13 23 0 8 -11 25 -25 38 -14 13 -25 26 -25 30 0 4 -13 21 -30 38
-16 16 -30 34 -30 39 0 10 -36 49 -46 49 -7 0 -34 27 -34 34 0 8 -65 70 -126
121 -26 22 -53 46 -60 53 -7 6 -15 12 -18 12 -3 0 -23 17 -45 39 -21 21 -53
47 -72 57 -18 11 -42 28 -54 40 -11 12 -30 24 -42 28 -13 4 -23 12 -23 17 0 5
-6 9 -14 9 -8 0 -16 3 -18 8 -1 4 -23 20 -48 36 -25 16 -57 37 -72 48 -28 19
-50 23 -61 11z"/>
<path d="M4670 6619 c0 -21 -17 -66 -46 -122 -8 -16 -14 -44 -14 -63 0 -19 -4
-34 -10 -34 -5 0 -13 -18 -16 -40 -4 -22 -11 -43 -15 -46 -5 -3 -9 -17 -9 -32
-1 -15 -7 -38 -15 -52 -8 -14 -14 -45 -15 -70 0 -36 5 -49 27 -67 14 -13 30
-23 34 -23 4 0 37 -13 72 -30 36 -16 70 -30 76 -30 6 0 11 -4 11 -10 0 -5 11
-10 24 -10 13 0 26 -7 30 -15 3 -8 12 -15 21 -15 8 0 23 -4 33 -10 9 -5 38
-18 64 -30 91 -39 101 -25 54 73 -20 40 -36 78 -36 84 0 10 -23 62 -66 146 -8
16 -14 35 -14 42 0 7 -6 26 -14 42 -24 46 -46 100 -46 112 0 6 -4 11 -10 11
-5 0 -10 13 -10 29 0 16 -7 36 -15 45 -8 8 -15 21 -15 29 0 9 -7 28 -14 44 -8
15 -17 36 -20 46 -8 25 -46 22 -46 -4z"/>
<path d="M6920 6041 c0 -10 -7 -24 -15 -31 -8 -7 -15 -21 -15 -31 0 -11 -4
-19 -9 -19 -5 0 -12 -11 -15 -25 -4 -14 -11 -25 -16 -25 -6 0 -10 -5 -10 -11
0 -16 -39 -97 -50 -104 -5 -3 -10 -17 -10 -31 0 -13 -4 -24 -9 -24 -5 0 -13
-10 -17 -22 -3 -12 -13 -28 -20 -36 -8 -7 -14 -20 -14 -28 0 -8 -4 -14 -10
-14 -5 0 -10 -9 -10 -19 0 -11 -7 -26 -15 -35 -8 -8 -15 -19 -15 -25 0 -6 -4
-11 -10 -11 -5 0 -14 -17 -19 -37 -12 -44 -4 -53 51 -53 20 0 40 -5 43 -10 4
-7 11 -8 18 -1 8 6 29 6 57 1 25 -5 102 -9 173 -10 141 0 132 -5 127 75 -1 22
-8 52 -16 67 -8 15 -14 38 -14 51 0 13 -3 27 -7 31 -7 7 -19 53 -42 161 -9 42
-28 98 -42 127 -5 10 -9 29 -9 43 0 25 -31 65 -50 65 -5 0 -10 -8 -10 -19z"/>
<path d="M4441 5798 c-7 -29 -17 -81 -21 -114 -4 -34 -11 -68 -16 -75 -4 -8
-11 -52 -15 -99 -4 -47 -12 -132 -19 -190 -21 -179 -6 -477 31 -625 6 -22 13
-53 16 -70 3 -16 12 -35 19 -43 8 -7 14 -27 14 -43 0 -16 4 -29 9 -29 5 0 12
-11 15 -25 4 -14 11 -25 16 -25 6 0 10 -9 10 -20 0 -11 7 -20 15 -20 8 0 15
-6 15 -13 0 -18 80 -97 97 -97 7 0 13 -4 13 -9 0 -5 12 -12 27 -16 15 -3 31
-11 34 -17 4 -7 60 -10 149 -10 111 1 147 4 165 16 14 9 38 16 55 16 16 0 30
3 30 8 0 7 60 37 98 47 12 4 22 11 22 16 0 5 6 9 14 9 8 0 21 6 28 13 7 6 30
21 51 32 20 11 37 23 37 27 0 5 6 8 14 8 8 0 16 7 20 15 3 8 10 15 16 15 15 0
75 45 130 97 25 24 49 43 53 43 19 0 67 60 67 84 0 14 -4 26 -9 26 -5 0 -11 8
-15 18 -5 17 -26 52 -36 62 -3 3 -13 21 -23 40 -36 68 -52 95 -64 108 -7 7
-13 19 -13 27 0 7 -3 15 -7 17 -5 2 -16 18 -25 36 -10 17 -26 47 -35 64 -10
18 -21 35 -25 38 -3 3 -10 18 -13 33 -4 15 -11 27 -15 27 -5 0 -12 10 -16 23
-4 12 -9 24 -13 27 -10 9 -71 134 -71 148 0 6 -3 12 -7 12 -5 0 -19 25 -33 54
-24 53 -51 75 -107 91 -13 3 -23 11 -23 16 0 5 -11 9 -24 9 -14 0 -27 4 -30 9
-3 5 -18 12 -33 15 -16 4 -53 18 -83 32 -30 15 -68 32 -85 39 -16 7 -46 20
-67 29 -20 9 -41 16 -47 16 -6 0 -11 4 -11 9 0 5 -11 12 -25 15 -14 4 -25 11
-25 16 0 6 -11 10 -24 10 -13 0 -29 7 -36 15 -7 8 -21 15 -31 15 -11 0 -19 4
-19 9 0 5 -13 12 -30 16 -16 4 -30 11 -30 16 0 5 -10 9 -23 9 -19 0 -24 -9
-36 -52z"/>
<path d="M5515 5410 c-7 -12 27 -89 72 -158 19 -30 41 -72 50 -95 10 -23 23
-48 30 -55 7 -7 13 -20 13 -28 0 -8 7 -14 15 -14 8 0 15 -9 15 -19 0 -11 4
-22 9 -26 6 -3 20 -26 32 -50 12 -25 26 -45 31 -45 4 0 8 -7 8 -15 0 -21 52
-45 58 -27 2 8 16 26 31 42 14 16 44 50 66 76 22 25 46 52 53 59 6 8 12 18 12
23 0 4 11 19 25 32 14 13 41 47 60 75 38 55 39 82 1 89 -11 2 -55 11 -96 20
-41 9 -85 16 -97 16 -13 0 -23 5 -23 10 0 6 -17 10 -37 10 -21 0 -51 7 -67 15
-15 8 -43 15 -60 15 -18 0 -35 3 -39 6 -6 7 -137 54 -149 54 -4 0 -10 -4 -13
-10z"/>
<path d="M6414 5159 c-16 -24 -39 -55 -51 -69 -13 -14 -23 -29 -23 -35 0 -6
-11 -22 -25 -37 -14 -15 -25 -31 -25 -36 0 -4 -13 -21 -30 -37 -16 -16 -30
-33 -30 -38 0 -5 -11 -20 -25 -33 -14 -13 -25 -26 -25 -30 0 -4 -10 -17 -22
-29 -39 -39 -88 -94 -88 -100 0 -8 -39 -45 -47 -45 -9 0 -33 -49 -33 -67 0 -7
5 -13 10 -13 6 0 10 -11 10 -25 0 -14 4 -25 8 -25 5 0 37 -39 72 -87 35 -49
69 -92 77 -96 7 -4 13 -13 13 -18 0 -6 6 -16 13 -23 6 -7 23 -27 37 -46 14
-18 33 -41 43 -51 9 -11 17 -21 17 -24 0 -2 28 -34 63 -70 154 -163 216 -225
225 -225 6 0 12 -4 14 -8 7 -17 154 -122 170 -122 10 0 18 -4 18 -10 0 -12 82
-50 109 -50 11 0 23 -4 26 -10 3 -5 31 -10 61 -10 30 0 54 5 54 10 0 6 14 10
31 10 23 0 41 10 65 34 34 35 74 102 74 123 0 7 5 13 10 13 6 0 10 10 10 23 0
13 7 32 15 43 8 10 15 39 15 65 0 25 5 50 11 56 16 16 23 377 9 513 -6 63 -15
156 -20 205 -4 50 -13 106 -19 125 -6 19 -11 56 -11 82 0 26 -4 49 -9 52 -5 4
-12 25 -16 48 -14 82 -2 78 -255 78 -124 0 -243 5 -265 10 -22 5 -83 12 -136
16 l-97 7 -28 -44z"/>
</g>
</svg>
